# xmcd
#
# Track frame offsets: 
#        225
#        14070
#        36922
#        55450
#        76855
#        93060
#        111740
#        130345
#        149267
#        168250
#        186560
#        205672
#        223745
#        241772
#        261367
#        275475
#        293295
#        313152
#
# Disc length: 4416 seconds
#
# Revision: 0
# Processed by: cddbd v1.5.2PL0 Copyright (c) Steve Scherf et al.
# Submitted via: ExactAudioCopyFreeDBPlugin 1.0
#
DISCID=12113d12
DTITLE=Various Artist - Golden Pop Ballads Vol.12
DYEAR=1900
DGENRE=Blues
TTITLE0=Madonna - You Must Love Me
TTITLE1=Peter Andre - I Feel You
TTITLE2=Phil Collins - The Same Moon
TTITLE3=Dina Carroll - Escaping
TTITLE4=Blue System - All I Miss You
TTITLE5=Stevie Wonder - Kiss Lonely Goodbye
TTITLE6=Bonnie Tyler - Limelight
TTITLE7=Color Me Badd - Sexual Capacity
TTITLE8=Brandy, Tamia, Glady's Knight, Chakakhan - Missing You
TTITLE9=Boyzone - Words
TTITLE10=East 17 feat. Gabrielle - If You Ever
TTITLE11=No Mercy - My Promise to You
TTITLE12=Rod Stewart - If We Fall in Love Tonight
TTITLE13=Bryan Ferry - Dance with Life
TTITLE14=The Kelly Family - I Can't Help Myself
TTITLE15=Alan Parsons - Brother Up in Heaven
TTITLE16=Joe Cocker - Many Rivers to Cross
TTITLE17=Chris de Burgh - Riding on a Rainbow
EXTD=
EXTT0=
EXTT1=
EXTT2=
EXTT3=
EXTT4=
EXTT5=
EXTT6=
EXTT7=
EXTT8=
EXTT9=
EXTT10=
EXTT11=
EXTT12=
EXTT13=
EXTT14=
EXTT15=
EXTT16=
EXTT17=
PLAYORDER=
